<svg width="400" height="400" xmlns="http://www.w3.org/2000/svg">
  <!-- Plate (background) -->
  <ellipse cx="200" cy="220" rx="180" ry="120" fill="#f8f8f8" stroke="#e0e0e0" stroke-width="2"/>
  
  <!-- Steak -->
  <path d="M150,180 C160,160 240,160 250,180 S240,230 200,230 S140,200 150,180 Z" fill="#8b4513" stroke="#5d2906" stroke-width="2"/>
  
  <!-- Egg -->
  <circle cx="270" cy="190" r="40" fill="#fff5e6" stroke="#ffdb99" stroke-width="2"/>
  <circle cx="270" cy="190" r="15" fill="#ffc61a"/>
  
  <!-- Mushrooms -->
  <circle cx="120" cy="200" r="15" fill="#d6c9c0"/>
  <rect x="110" y="200" width="20" height="15" fill="#d6c9c0"/>
  
  <circle cx="140" cy="210" r="12" fill="#d6c9c0"/>
  <rect x="132" y="210" width="16" height="12" fill="#d6c9c0"/>
  
  <!-- French Bread -->
  <path d="M60,230 Q130,200 200,230 Q270,260 340,230 L340,240 Q270,270 200,240 Q130,210 60,240 Z" fill="#f6d7a7" stroke="#e0c080" stroke-width="2"/>
  
  <!-- Herbs -->
  <path d="M240,160 Q250,140 260,160" stroke="#4caf50" stroke-width="2" fill="none"/>
  <path d="M250,155 Q260,140 270,155" stroke="#4caf50" stroke-width="2" fill="none"/>
  <path d="M260,160 Q270,140 280,160" stroke="#4caf50" stroke-width="2" fill="none"/>
  
  <path d="M90,170 Q100,150 110,170" stroke="#4caf50" stroke-width="2" fill="none"/>
  <path d="M100,165 Q110,150 120,165" stroke="#4caf50" stroke-width="2" fill="none"/>
  
  <!-- Sizzle Lines -->
  <path d="M140,150 Q150,145 160,150" stroke="#ff6b35" stroke-width="2" fill="none"/>
  <path d="M180,140 Q190,135 200,140" stroke="#ff6b35" stroke-width="2" fill="none"/>
  <path d="M220,145 Q230,140 240,145" stroke="#ff6b35" stroke-width="2" fill="none"/>
</svg> 