<svg width="200" height="200" xmlns="http://www.w3.org/2000/svg">
  <!-- Sausage shape -->
  <path d="M40,90 C40,70 60,60 80,60 C120,60 160,80 160,100 C160,120 120,140 80,140 C60,140 40,130 40,110 Z" 
    fill="#B22222" stroke="#8B0000" stroke-width="2"/>
  
  <!-- Highlights and shadows -->
  <ellipse cx="100" cy="80" rx="55" ry="10" fill="#FF6347" opacity="0.3"/>
  <ellipse cx="100" cy="120" rx="55" ry="10" fill="#800000" opacity="0.3"/>
  
  <!-- Grill marks -->
  <line x1="60" y1="70" x2="60" y2="130" stroke="#8B0000" stroke-width="2"/>
  <line x1="80" y1="65" x2="80" y2="135" stroke="#8B0000" stroke-width="2"/>
  <line x1="100" y1="65" x2="100" y2="135" stroke="#8B0000" stroke-width="2"/>
  <line x1="120" y1="65" x2="120" y2="135" stroke="#8B0000" stroke-width="2"/>
  <line x1="140" y1="70" x2="140" y2="130" stroke="#8B0000" stroke-width="2"/>
  
  <!-- Spices/herbs -->
  <circle cx="75" cy="85" r="1" fill="#000000" opacity="0.7"/>
  <circle cx="95" cy="75" r="1" fill="#000000" opacity="0.7"/>
  <circle cx="130" cy="85" r="1" fill="#000000" opacity="0.7"/>
  <circle cx="65" cy="110" r="1" fill="#000000" opacity="0.7"/>
  <circle cx="110" cy="115" r="1" fill="#000000" opacity="0.7"/>
  <circle cx="145" cy="105" r="1" fill="#000000" opacity="0.7"/>
  
  <!-- End caps -->
  <ellipse cx="40" cy="100" rx="2" ry="10" fill="#8B0000"/>
  <ellipse cx="160" cy="100" rx="2" ry="10" fill="#8B0000"/>
</svg>