<svg width="250" height="50" viewBox="0 0 250 50" fill="none" xmlns="http://www.w3.org/2000/svg">
  <!-- Left line -->
  <path d="M10 25H90" stroke="#D97706" stroke-width="2" stroke-linecap="round"/>
  
  <!-- Spoon -->
  <g transform="translate(125, 25) scale(0.8)">
    <path d="M-30 0C-30 -8 -20 -15 0 -15C20 -15 30 -8 30 0C30 8 20 15 0 15C-20 15 -30 8 -30 0Z" fill="#FBBF24" fill-opacity="0.3"/>
    <path d="M-25 0C-25 -6 -15 -12 0 -12C15 -12 25 -6 25 0C25 6 15 12 0 12C-15 12 -25 6 -25 0Z" stroke="#D97706" stroke-width="2" fill="none"/>
    <line x1="0" y1="-12" x2="0" y2="30" stroke="#D97706" stroke-width="2" stroke-linecap="round"/>
  </g>
  
  <!-- Right line -->
  <path d="M160 25H240" stroke="#D97706" stroke-width="2" stroke-linecap="round"/>
</svg> 