<svg width="200" height="200" xmlns="http://www.w3.org/2000/svg">
  <!-- Steak base shape -->
  <path d="M30,80 C40,40 80,30 120,40 C160,50 180,90 170,130 C160,170 120,180 80,170 C40,160 20,120 30,80 Z" 
    fill="#8B4513" stroke="#5D2906" stroke-width="3"/>
  
  <!-- Grilled marks -->
  <path d="M40,70 L160,90" stroke="#5D2906" stroke-width="4" stroke-linecap="round"/>
  <path d="M35,100 L155,120" stroke="#5D2906" stroke-width="4" stroke-linecap="round"/>
  <path d="M40,130 L150,150" stroke="#5D2906" stroke-width="4" stroke-linecap="round"/>
  
  <!-- Fat marbling -->
  <path d="M50,60 C60,65 70,60 75,55" stroke="white" stroke-width="3" stroke-linecap="round" fill="none"/>
  <path d="M90,50 C100,55 110,50 115,45" stroke="white" stroke-width="3" stroke-linecap="round" fill="none"/>
  <path d="M130,60 C140,65 150,60 155,55" stroke="white" stroke-width="3" stroke-linecap="round" fill="none"/>
  <path d="M60,100 C70,105 80,100 85,95" stroke="white" stroke-width="2" stroke-linecap="round" fill="none"/>
  <path d="M100,110 C110,115 120,110 125,105" stroke="white" stroke-width="2" stroke-linecap="round" fill="none"/>
  <path d="M70,140 C80,145 90,140 95,135" stroke="white" stroke-width="2" stroke-linecap="round" fill="none"/>
  <path d="M120,150 C130,155 140,150 145,145" stroke="white" stroke-width="2" stroke-linecap="round" fill="none"/>
</svg>